# xmcd
#
# Track frame offsets: 
#        150
#        23175
#        42112
#        61237
#        87262
#        117262
#        163199
#        179249
#
# Disc length: 3060 seconds
#
# Revision: 0
# Processed by: cddbd v1.5.2PL0 Copyright (c) Steve Scherf et al.
# Submitted via: ExactAudioCopy v1.0b3
#
DISCID=680bf208
DTITLE=Sunsweet Blues Revenge - Better Luck Next Time
DYEAR=2012
DGENRE=Power Blues
TTITLE0=Rock Me Baby
TTITLE1=Looking Out My Backdoor
TTITLE2=Boaster
TTITLE3=Crosseyed Cat
TTITLE4=Dust On My Shoes - Ft. Francesco Piu
TTITLE5=I Can't Quit You Baby
TTITLE6=Backdoor Man
TTITLE7=Reason Why
EXTD=
EXTT0=
EXTT1=
EXTT2=
EXTT3=
EXTT4=
EXTT5=
EXTT6=
EXTT7=
PLAYORDER=
